Coordinates
version=1
nRows=14
nColumns=46
inDegrees=yes

Units are S.I. units (second, meters, Newtons, ...)
Angles are in degrees.

endheader
time	pelvis_tilt	pelvis_list	pelvis_rotation	pelvis_tx	pelvis_ty	pelvis_tz	bb_angle	bb_tx	bb_ty	bb_tz	hip_flexion_r	hip_adduction_r	hip_rotation_r	knee_angle_r	knee_angle_r_beta	ankle_angle_r	subtalar_angle_r	mtp_angle_r	crank_angle_r	hip_flexion_l	hip_adduction_l	hip_rotation_l	knee_angle_l	knee_angle_l_beta	ankle_angle_l	subtalar_angle_l	mtp_angle_l	crank_angle_l	lumbar_extension	lumbar_bending	lumbar_rotation	arm_flex_r	arm_add_r	arm_rot_r	elbow_flex_r	pro_sup_r	wrist_flex_r	wrist_dev_r	arm_flex_l	arm_add_l	arm_rot_l	elbow_flex_l	pro_sup_l	wrist_flex_l	wrist_dev_l
      2.50500000	    -18.85303872	     -6.15906463	     -0.14236260	      0.27060316	      1.13954382	     -0.22935172	      0.00000000	      0.50000000	      0.00000000	      0.25000000	     71.68056445	     -1.18411913	     -4.76927509	    108.32757401	      1.89067284	     -6.80547841	    -13.42209170	      0.00000000	      0.00000000	     40.52870817	     -8.92407383	      5.21967963	     29.40969969	      0.51329609	    -22.17216696	    -14.03660635	      0.00000000	      0.00000000	    -55.21895521	      3.91099783	      8.86109226	     81.63587103	    -12.47422819	     54.98813029	     24.96657526	     42.81195269	      0.00000000	      0.00000000	     79.26589519	     -8.15265806	     47.07826565	     32.70958243	     41.99913068	      0.00000000	      0.00000000
      2.51000000	    -18.93987092	     -6.52843465	     -0.44024312	      0.27147850	      1.14068347	     -0.23014463	      0.00000000	      0.50000000	      0.00000000	      0.25000000	     72.52393688	     -0.86937912	     -4.88355542	    108.90215729	      1.90070121	     -5.65853742	    -12.56696603	      0.00000000	      0.00000000	     39.22079846	     -9.57807639	      4.39191486	     27.60126624	      0.48173297	    -23.42434982	    -13.57315390	      0.00000000	      0.00000000	    -55.33443756	      4.01212432	      9.20767374	     81.88028678	    -12.23867249	     55.37882805	     24.29360092	     42.79132382	      0.00000000	      0.00000000	     79.28397664	     -8.15361841	     47.15825954	     32.74404850	     42.04115409	      0.00000000	      0.00000000
      2.51500000	    -19.33953452	     -7.15230696	     -0.56551114	      0.27198628	      1.14137488	     -0.23117628	      0.00000000	      0.50000000	      0.00000000	      0.25000000	     73.68266532	     -0.62805416	     -5.36266597	    109.34471157	      1.90842524	     -5.06179838	    -12.60342457	      0.00000000	      0.00000000	     38.47276764	    -10.32139427	      3.94395131	     26.05399464	      0.45472799	    -24.37364200	    -12.74229314	      0.00000000	      0.00000000	    -55.15034406	      4.50758963	      9.58629290	     82.05514681	    -12.09031094	     55.47417704	     24.24299898	     42.80202405	      0.00000000	      0.00000000	     79.26632207	     -8.24013210	     47.17979454	     32.67300371	     42.03982286	      0.00000000	      0.00000000
      2.52000000	    -19.69484883	     -7.74597109	     -0.75644555	      0.27265020	      1.14241370	     -0.23223003	      0.00000000	      0.50000000	      0.00000000	      0.25000000	     74.74026687	     -0.38163553	     -5.82013632	    109.66636268	      1.91403911	     -4.41265248	    -12.46435406	      0.00000000	      0.00000000	     37.65258357	    -11.10223509	      3.24099692	     24.50290988	      0.42765645	    -25.50555873	    -11.84096455	      0.00000000	      0.00000000	    -55.05846406	      4.92922527	     10.01138989	     82.15785935	    -11.98623611	     55.56962079	     24.16571361	     42.81028885	      0.00000000	      0.00000000	     79.24288452	     -8.29028041	     47.21322292	     32.58627190	     42.03757969	      0.00000000	      0.00000000
      2.52500000	    -20.01840414	     -8.27727711	     -0.96716497	      0.27327779	      1.14363916	     -0.23332142	      0.00000000	      0.50000000	      0.00000000	      0.25000000	     75.74055750	     -0.17054886	     -6.20918194	    109.89629562	      1.91805219	     -3.79795628	    -12.16582683	      0.00000000	      0.00000000	     36.82260075	    -11.84606899	      2.43112600	     23.02656351	      0.40188935	    -26.59356500	    -10.89896692	      0.00000000	      0.00000000	    -54.96142395	      5.28884091	     10.40224436	     82.28518136	    -11.95089246	     55.63077145	     24.11098858	     42.81704395	      0.00000000	      0.00000000	     79.24722822	     -8.31733830	     47.25266570	     32.48044054	     42.03232570	      0.00000000	      0.00000000
      2.53000000	    -20.13598120	     -8.56424512	     -1.39028236	      0.27441518	      1.14539549	     -0.23421279	      0.00000000	      0.50000000	      0.00000000	      0.25000000	     76.47251207	      0.20269182	     -6.24819081	    110.05109426	      1.92075394	     -3.01240337	    -11.56959544	      0.00000000	      0.00000000	     35.63038242	    -12.53301534	      1.01013271	     21.53717183	      0.37589456	    -27.64682818	     -9.78268052	      0.00000000	      0.00000000	    -55.13743149	      5.24295225	     10.83915974	     82.29273753	    -12.06856594	     55.76378143	     24.04810013	     42.85521737	      0.00000000	      0.00000000	     79.32525130	     -8.11887511	     47.38950101	     32.19866135	     42.02289496	      0.00000000	      0.00000000
      2.53500000	    -20.53542345	     -9.03467787	     -1.56084322	      0.27504801	      1.14676941	     -0.23550603	      0.00000000	      0.50000000	      0.00000000	      0.25000000	     77.46318532	      0.31048079	     -6.64284188	    110.04000907	      1.92056047	     -2.53640884	    -11.47741102	      0.00000000	      0.00000000	     34.97182182	    -13.15481906	      0.28249152	     20.27265349	      0.35382455	    -28.70126233	     -8.75287123	      0.00000000	      0.00000000	    -55.03413704	      5.60456250	     11.14891204	     82.36452879	    -12.09613945	     55.78463545	     24.18982436	     42.89122300	      0.00000000	      0.00000000	     79.36571097	     -8.11438302	     47.46534636	     32.00120628	     42.00886899	      0.00000000	      0.00000000
      2.54000000	    -20.71637268	     -9.30403091	     -1.87458871	      0.27595150	      1.14860716	     -0.23657970	      0.00000000	      0.50000000	      0.00000000	      0.25000000	     78.20550319	      0.48960245	     -6.82940337	    109.92498631	      1.91855294	     -2.19562435	    -11.38657382	      0.00000000	      0.00000000	     34.01404568	    -13.70602653	     -0.92594991	     19.08095496	      0.33302549	    -29.60033346	     -7.57815493	      0.00000000	      0.00000000	    -55.14780573	      5.57225803	     11.70102140	     82.14738559	    -12.99827040	     55.49031346	     25.51178059	     43.18470137	      0.00000000	      0.00000000	     79.80488705	     -7.47532877	     48.26822610	     30.78910954	     41.99438573	      0.00000000	      0.00000000
      2.54500000	    -21.14375475	     -9.64004908	     -2.07146436	      0.27650769	      1.15005763	     -0.23795855	      0.00000000	      0.50000000	      0.00000000	      0.25000000	     79.15138677	      0.52985748	     -7.12650786	    109.66934553	      1.91409117	     -1.84594138	    -11.36303806	      0.00000000	      0.00000000	     33.49601520	    -14.15542598	     -1.58662609	     18.13339716	      0.31648748	    -30.50076609	     -6.82711130	      0.00000000	      0.00000000	    -55.03941824	      5.85988555	     11.90388854	     82.26319245	    -12.96308768	     55.44934393	     25.64093405	     43.20325368	      0.00000000	      0.00000000	     79.88577946	     -7.54836535	     48.29593657	     30.71226208	     41.98956897	      0.00000000	      0.00000000
      2.55000000	    -21.37818575	     -9.78176032	     -2.42717003	      0.27744035	      1.15186474	     -0.23907406	      0.00000000	      0.50000000	      0.00000000	      0.25000000	     79.86280484	      0.68071101	     -7.23773105	    109.34610883	      1.90844962	     -1.76760730	    -11.48759586	      0.00000000	      0.00000000	     32.66120033	    -14.53666051	     -2.69221435	     17.18320847	      0.29990356	    -31.38041147	     -5.98689636	      0.00000000	      0.00000000	    -55.08184113	      5.75181900	     12.02731895	     82.15280166	    -13.10266256	     55.28651057	     25.97250528	     43.25006063	      0.00000000	      0.00000000	     79.93265109	     -7.42730456	     48.53597562	     30.61208526	     42.01488851	      0.00000000	      0.00000000
      2.55500000	    -21.74810724	     -9.94974752	     -2.61678689	      0.27785396	      1.15341366	     -0.24048315	      0.00000000	      0.50000000	      0.00000000	      0.25000000	     80.67785221	      0.60049613	     -7.48776453	    108.88501698	      1.90040205	     -1.65912904	    -11.67170679	      0.00000000	      0.00000000	     32.23121027	    -14.76881817	     -3.19093321	     16.64372050	      0.29048772	    -31.93159477	     -5.49400863	      0.00000000	      0.00000000	    -55.04558946	      5.85202599	     12.13506123	     82.29409506	    -13.10826801	     55.17818016	     26.21548982	     43.27678332	      0.00000000	      0.00000000	     80.09852019	     -7.48844930	     48.63897631	     30.46393437	     42.00683051	      0.00000000	      0.00000000
      2.56000000	    -22.08339928	    -10.00117543	     -2.91831538	      0.27840158	      1.15488936	     -0.24166950	      0.00000000	      0.50000000	      0.00000000	      0.25000000	     81.43414102	      0.61428540	     -7.68006587	    108.33320300	      1.89077108	     -1.95959771	    -12.42909268	      0.00000000	      0.00000000	     31.81875207	    -14.96035553	     -3.93233673	     16.36644660	      0.28564838	    -32.23135037	     -5.10670447	      0.00000000	      0.00000000	    -54.94115001	      5.72744931	     12.20400397	     82.09425619	    -13.32979143	     54.68019456	     26.97141599	     43.35414716	      0.00000000	      0.00000000	     80.39673944	     -7.39930340	     49.37167930	     29.84975256	     42.01789386	      0.00000000	      0.00000000
      2.56500000	    -22.27807949	    -10.01796768	     -2.96854341	      0.27879387	      1.15640051	     -0.24339852	      0.00000000	      0.50000000	      0.00000000	      0.25000000	     81.95136935	      0.29945589	     -7.88434763	    107.74066743	      1.88042938	     -1.77115674	    -12.51763753	      0.00000000	      0.00000000	     31.46259751	    -14.90724806	     -4.10240046	     16.41080146	      0.28642252	    -32.24062597	     -5.12526372	      0.00000000	      0.00000000	    -54.97158017	      5.77879259	     12.11176755	     82.14966641	    -13.32309682	     54.65465132	     27.00451119	     43.35579545	      0.00000000	      0.00000000	     80.48071845	     -7.37780909	     49.40216416	     29.82930204	     42.01780793	      0.00000000	      0.00000000
      2.57000000	    -22.75471188	    -10.11950507	     -3.13263212	      0.27902527	      1.15752032	     -0.24476519	      0.00000000	      0.50000000	      0.00000000	      0.25000000	     82.65328186	      0.22694242	     -8.19106870	    107.02319398	      1.86790711	     -1.40627045	    -13.14789056	      0.00000000	      0.00000000	     31.55316651	    -14.98328965	     -4.17889620	     16.70495074	      0.29155639	    -32.36819124	     -5.49751695	      0.00000000	      0.00000000	    -54.76142356	      5.87295493	     11.95212701	     82.36427532	    -13.07845887	     54.55416843	     27.21301811	     43.37377075	      0.00000000	      0.00000000	     80.80485531	     -7.53627172	     49.58761332	     29.51763524	     41.99105815	      0.00000000	      0.00000000
